PathFileType	4	(X/Y/Z)	./resultDataOpenSim/trcMotMarkerGrf/sub06/qtm-01-06.trc
DataRate	CameraRate	NumFrames	NumMarkers	Units	OrigDataRate	OrigDataStartFrame	OrigNumFrames
250.000000	250.000000	10	24	m	250.000000	126	501
Frame#	Time	L.Toe.Tip			R.Toe.Tip			L.Ankle.Lat			R.Ankle.Lat			L.Ankle.Med			R.Ankle.Med			L.Heel			R.Heel			L.Knee.Lat			R.Knee.Lat			L.Knee.Med			R.Knee.Med			L.Thigh.Upper			R.Thigh.Upper			L.ASIS			R.ASIS			V.Sacral			L.Acromium			R.Acromium			C7			L.Elbow			R.Elbow			L.Wrist.Lat			R.Wrist.Lat
		X1	Y1	Z1	X2	Y2	Z2	X3	Y3	Z3	X4	Y4	Z4	X5	Y5	Z5	X6	Y6	Z6	X7	Y7	Z7	X8	Y8	Z8	X9	Y9	Z9	X10	Y10	Z10	X11	Y11	Z11	X12	Y12	Z12	X13	Y13	Z13	X14	Y14	Z14	X15	Y15	Z15	X16	Y16	Z16	X17	Y17	Z17	X18	Y18	Z18	X19	Y19	Z19	X20	Y20	Z20	X21	Y21	Z21	X22	Y22	Z22	X23	Y23	Z23	X24	Y24	Z24

126	0.5	-0.37519679	0.05879037	-0.087959179	-0.69226892	0.036421196	0.08866177	-0.49853141	0.089461056	-0.094631791	-0.82780042	0.063440683	0.10672883	-0.48724131	0.1052742	-0.01026892	-0.80564193	0.083209145	0.020700533	-0.56359194	0.056121814	-0.038436936	-0.88170999	0.041994067	0.043442628	-0.44490184	0.46631323	-0.10382494	-0.71501678	0.43581022	0.14362779	-0.45858603	0.45818825	0.017463109	-0.74910125	0.43701088	0.014291138	-0.62446201	0.82017801	-0.13762281	-0.67214431	0.79974021	0.20355672	-0.56351772	0.86544275	-0.08157072	-0.56937825	0.85876947	0.16246741	-0.75300928	0.93294584	0.03953276	-0.64567549	1.3395303	-0.15537441	-0.63698892	1.3384158	0.20432851	-0.71929706	1.3711782	0.024774083	-0.72205349	1.0293228	-0.19929605	-0.65758673	1.0244121	0.29539087	-0.58791485	0.82299407	-0.21463257	-0.439638	0.89964417	0.29014652
127	0.504	-0.35539127	0.060873929	-0.086938645	-0.69224577	0.036384643	0.088710348	-0.47958773	0.087827223	-0.094109554	-0.82770554	0.063630873	0.10659527	-0.46898597	0.10405432	-0.0095937648	-0.80532693	0.083286096	0.020606807	-0.54375036	0.052579098	-0.038078919	-0.88157371	0.0422396	0.0431385	-0.43762687	0.46580824	-0.1031481	-0.71299269	0.43533006	0.14364787	-0.45173781	0.45737149	0.018228732	-0.74663893	0.43665026	0.014176972	-0.61765163	0.81915133	-0.13778639	-0.66775631	0.79866824	0.20446224	-0.55691992	0.86429308	-0.081619009	-0.56377898	0.85722928	0.16275645	-0.7465785	0.93165382	0.039219868	-0.63947529	1.3381085	-0.15540332	-0.63093861	1.3372767	0.20442515	-0.71318589	1.3699636	0.024749126	-0.71710029	1.0283683	-0.19883942	-0.64996045	1.0232057	0.29603552	-0.5847387	0.82125411	-0.21555552	-0.43003701	0.90152783	0.28931962
128	0.508	-0.33567674	0.063153672	-0.085840849	-0.69219238	0.036338369	0.088775685	-0.46068947	0.086458165	-0.093661993	-0.82758034	0.063886848	0.10648121	-0.45074854	0.10308281	-0.0089605162	-0.80496784	0.083381801	0.020548589	-0.52395937	0.04933081	-0.037821453	-0.88144106	0.042527203	0.04285623	-0.43047962	0.46514247	-0.10254242	-0.71086916	0.43483035	0.14366851	-0.44493789	0.45637036	0.018974366	-0.74402299	0.43623869	0.014060258	-0.61072177	0.81802119	-0.13794077	-0.66316096	0.79758228	0.20537695	-0.55027595	0.86306919	-0.081698385	-0.55828846	0.8556395	0.16303585	-0.74064204	0.93027305	0.03832328	-0.63322286	1.3366158	-0.15545738	-0.6248531	1.3360585	0.20452051	-0.70704568	1.3686779	0.024730403	-0.7121074	1.0273596	-0.19841924	-0.64232571	1.0219322	0.29665723	-0.58148445	0.81946017	-0.21644645	-0.4205073	0.90333251	0.28848685
129	0.512	-0.31611419	0.065623897	-0.084681938	-0.69212403	0.036296905	0.088845553	-0.44185879	0.085366651	-0.093259786	-0.82744998	0.064166474	0.10636832	-0.43265248	0.10233251	-0.0084041352	-0.80457474	0.083481835	0.020510332	-0.50420076	0.046402503	-0.037628547	-0.88130964	0.042843746	0.042592663	-0.42346744	0.46431148	-0.1020016	-0.70864031	0.43431518	0.14369336	-0.43821141	0.45518679	0.019695967	-0.7412626	0.43579324	0.013949921	-0.60379713	0.81676899	-0.13808134	-0.65827157	0.79647181	0.20624743	-0.54364679	0.86175095	-0.081806135	-0.55290134	0.8539755	0.16327049	-0.73506047	0.92883071	0.036949681	-0.62708557	1.3350632	-0.15554481	-0.61872989	1.3347542	0.20460673	-0.70086546	1.3673064	0.024729139	-0.70712766	1.0263127	-0.19811121	-0.63467625	1.0205756	0.29726036	-0.57833216	0.81756401	-0.21739274	-0.4110549	0.90506211	0.28763893
130	0.516	-0.29676372	0.068289675	-0.083469597	-0.69204724	0.036258682	0.088908469	-0.42311475	0.084572521	-0.092878908	-0.82733601	0.064428281	0.10623919	-0.41473146	0.10181314	-0.0079285625	-0.80416973	0.083573113	0.020460439	-0.48450341	0.043820437	-0.037506891	-0.88116562	0.043171857	0.0423254	-0.41657522	0.46331718	-0.10148972	-0.70629425	0.43379005	0.14372724	-0.43156685	0.4538385	0.02039539	-0.73836147	0.43532433	0.013838385	-0.59690473	0.81539023	-0.13820277	-0.65298494	0.79532642	0.20701818	-0.53707092	0.86032908	-0.081927762	-0.54750511	0.85223891	0.16340756	-0.72956308	0.92730284	0.035411962	-0.62100347	1.3334456	-0.15563553	-0.61255874	1.3333622	0.2046803	-0.69465563	1.3658492	0.024745396	-0.70227842	1.025256	-0.19806399	-0.62700276	1.0191211	0.29784765	-0.57534138	0.81556219	-0.21843413	-0.40167838	0.90671885	0.28674294
131	0.52	-0.27766329	0.071165558	-0.082222729	-0.69196122	0.036210999	0.088956846	-0.40447325	0.084095084	-0.092513181	-0.82722626	0.064665031	0.10609216	-0.3970062	0.101537	-0.007539107	-0.80377705	0.08364385	0.020359909	-0.46495358	0.041606184	-0.037435181	-0.88099159	0.04350533	0.042026927	-0.40974165	0.46217704	-0.10096558	-0.70380458	0.43325407	0.14377144	-0.42496793	0.45234829	0.021096408	-0.73531026	0.43483083	0.013719937	-0.59000465	0.81389256	-0.13831022	-0.64717069	0.79413386	0.20762686	-0.53054317	0.85881338	-0.082053291	-0.5420046	0.85045644	0.16345384	-0.72392922	0.92566299	0.034084189	-0.61477409	1.3317538	-0.1556935	-0.60633695	1.3318887	0.20474485	-0.68845466	1.3643399	0.024755567	-0.69767625	1.0242198	-0.19838658	-0.61930117	1.017571	0.29841883	-0.57242708	0.81348731	-0.21954032	-0.39236964	0.90829575	0.28577307
132	0.524	-0.25884969	0.074267269	-0.080980894	-0.69186735	0.036137466	0.088986455	-0.3859548	0.083939842	-0.092168404	-0.82708389	0.064893039	0.10593605	-0.37953947	0.10150448	-0.0072631228	-0.80340782	0.083691578	0.020183177	-0.44568105	0.039789103	-0.037310244	-0.88078283	0.043850463	0.041696839	-0.40290061	0.4609162	-0.10040798	-0.70113874	0.43270419	0.14381743	-0.41835562	0.45072847	0.021832009	-0.73209894	0.4343027	0.013590743	-0.58315143	0.81228317	-0.13843512	-0.64069269	0.79287642	0.20800185	-0.52403706	0.8572187	-0.082187701	-0.53637325	0.84868262	0.16357194	-0.71809552	0.92394035	0.033113914	-0.60840308	1.329999	-0.15573648	-0.60007457	1.3303421	0.20480475	-0.68226723	1.3628056	0.024739623	-0.69326394	1.0231937	-0.19892805	-0.61157539	1.0159429	0.29897181	-0.56946408	0.81137416	-0.22064538	-0.38311756	0.90977945	0.28473592
133	0.528	-0.24036316	0.077613524	-0.079789772	-0.69176918	0.036029981	0.088997385	-0.3676245	0.084093411	-0.091867187	-0.8268699	0.065134339	0.10578089	-0.36238558	0.10171935	-0.0071150146	-0.8030456	0.0837309	0.019943531	-0.42680045	0.038391842	-0.037023771	-0.88056185	0.044228156	0.041390212	-0.39602596	0.45955693	-0.099815392	-0.69829123	0.43213442	0.14384872	-0.41169059	0.44898632	0.022622284	-0.72872392	0.43372961	0.013437194	-0.57647375	0.81056898	-0.13861789	-0.63350779	0.7915292	0.20807495	-0.5175158	0.85555584	-0.082344631	-0.53057192	0.84701234	0.16411829	-0.7121189	0.92219156	0.032369346	-0.60208025	1.3282052	-0.15582021	-0.59377654	1.3287275	0.20486	-0.67602527	1.3612297	0.024713161	-0.68876158	1.0221078	-0.19932718	-0.60383386	1.0142559	0.29950391	-0.5663286	0.80925805	-0.22167759	-0.37390387	0.91116167	0.2836748
134	0.532	-0.22225011	0.081226997	-0.078672721	-0.69166647	0.035903084	0.088994397	-0.34962473	0.08452695	-0.091652261	-0.82655401	0.065403531	0.1056282	-0.34552841	0.10219797	-0.0070549149	-0.80265123	0.083783948	0.019685607	-0.40832239	0.03737742	-0.036643016	-0.88036521	0.044663924	0.041182348	-0.38912637	0.45811824	-0.099191436	-0.69528616	0.43152922	0.14384686	-0.40496195	0.44713732	0.02347277	-0.72519204	0.43310708	0.013245187	-0.56996705	0.80876983	-0.13887063	-0.62584257	0.79006985	0.20782462	-0.51093932	0.85383394	-0.082529538	-0.52454647	0.84552999	0.16540537	-0.70600748	0.92042519	0.031686542	-0.59588485	1.3263863	-0.15596701	-0.5874407	1.327049	0.20490705	-0.66968486	1.3596152	0.024692634	-0.68387776	1.0208833	-0.1993688	-0.5960819	1.0125182	0.30001433	-0.56298213	0.80715471	-0.22262363	-0.36471813	0.91244958	0.28265242
135	0.536	-0.20457358	0.085113635	-0.077624219	-0.69155408	0.035787853	0.088984	-0.33210608	0.085209648	-0.091559918	-0.8261163	0.065705286	0.10546893	-0.32891338	0.10295259	-0.0070096724	-0.8021894	0.083863045	0.019441161	-0.39016029	0.03662946	-0.036450469	-0.88019897	0.045161342	0.041069807	-0.38222469	0.45661598	-0.098537241	-0.69214197	0.43087055	0.14379987	-0.39816711	0.44520714	0.024386694	-0.72151745	0.43243744	0.013014687	-0.56344422	0.80691215	-0.13917412	-0.61827242	0.78851138	0.20733982	-0.50428368	0.85206421	-0.082731376	-0.51836358	0.84418956	0.16721397	-0.69956416	0.91859845	0.030981963	-0.58972607	1.324542	-0.15614971	-0.58107051	1.325314	0.20494099	-0.66330913	1.3580284	0.024653664	-0.67853937	1.019497	-0.19913027	-0.58831405	1.0107263	0.30050383	-0.55953879	0.80503919	-0.22355742	-0.35561209	0.91366148	0.28171974
